<?xml version="1.0" encoding="utf-8"?>
<!-- Generator: Adobe Illustrator 16.0.4, SVG Export Plug-In . SVG Version: 6.00 Build 0)  -->
<!DOCTYPE svg PUBLIC "-//W3C//DTD SVG 1.1//EN" "http://www.w3.org/Graphics/SVG/1.1/DTD/svg11.dtd">
<svg version="1.1" id="Ebene_1" xmlns="http://www.w3.org/2000/svg" xmlns:xlink="http://www.w3.org/1999/xlink" x="0px" y="0px"
	 width="45.354px" height="45.354px" viewBox="-0.445 77.279 45.354 45.354" enable-background="new -0.445 77.279 45.354 45.354"
	 xml:space="preserve">
<title>sw-logo</title>
<g id="_Gruppe_">
	<g id="_Gruppe_3">
		<path id="_Pfad_2" d="M35.083,116.845c-1.873-1.414-4.646-2.491-7.575-3.625c-3.488-1.352-7.462-2.887-10.412-5.246
			c-3.362-2.679-5-6.054-5-10.326c-0.058-3.709,1.649-7.225,4.599-9.473c3.374-2.655,8.487-4.062,14.783-4.062
			c1.652-0.005,3.302,0.101,4.94,0.318c0.17,0.022,0.325-0.098,0.347-0.268c0.013-0.101-0.024-0.202-0.1-0.27
			c-8.872-7.976-22.529-7.25-30.505,1.621c-7.976,8.872-7.25,22.529,1.621,30.506c3.963,3.562,9.102,5.534,14.431,5.537
			c4.631,0.021,9.144-1.458,12.866-4.215c0.078-0.058,0.125-0.15,0.125-0.247C35.206,116.998,35.161,116.904,35.083,116.845z"
			class="icon-color"/>
		<path id="_Pfad_3" d="M43.747,97.969c-0.007-0.083-0.046-0.159-0.11-0.212c-4.509-3.743-8.157-5.263-12.591-5.263
			c-2.356,0-4.179,0.476-5.388,1.41c-1.027,0.767-1.624,1.981-1.603,3.264c0,3.711,4.537,5.404,9.791,7.364
			c2.707,1.01,5.499,2.054,8.075,3.48c0.045,0.025,0.097,0.039,0.149,0.039c0.036-0.002,0.072-0.008,0.106-0.02
			c0.085-0.032,0.152-0.098,0.185-0.181c0.984-2.516,1.486-5.193,1.48-7.895C43.837,99.329,43.814,98.657,43.747,97.969z"
			class="icon-color"/>
	</g>
</g>
</svg>
