<svg viewBox="0 0 16 16" xmlns="http://www.w3.org/2000/svg">
        <g>
            <path class="icon-color" d="M12.758,14.252c-0.694,-0.523 -1.72,-0.922 -2.805,-1.342c-1.291,-0.5 -2.762,-1.068 -3.854,-1.942c-1.245,-0.992 -1.851,-2.241 -1.851,-3.823c-0.022,-1.373 0.61,-2.674 1.702,-3.507c1.249,-0.982 3.142,-1.503 5.473,-1.503c0.612,-0.002 1.223,0.037 1.829,0.117c0.063,0.009 0.12,-0.036 0.128,-0.099c0.005,-0.037 -0.009,-0.075 -0.037,-0.1c-3.284,-2.953 -8.34,-2.684 -11.293,0.6c-2.953,3.285 -2.684,8.341 0.6,11.294c1.467,1.319 3.37,2.049 5.343,2.05c1.714,0.008 3.385,-0.54 4.763,-1.561c0.029,-0.021 0.046,-0.055 0.046,-0.091c0.001,-0.036 -0.015,-0.071 -0.044,-0.093Z"/>
            <path class="icon-color" d="M15.965,7.264c-0.002,-0.03 -0.017,-0.059 -0.041,-0.078c-1.669,-1.386 -3.019,-1.949 -4.661,-1.949c-0.872,0 -1.547,0.177 -1.995,0.522c-0.38,0.284 -0.601,0.734 -0.593,1.209c0,1.374 1.68,2 3.625,2.726c1.002,0.374 2.036,0.76 2.989,1.288c0.017,0.01 0.036,0.015 0.055,0.015c0.014,-0.001 0.027,-0.003 0.04,-0.008c0.031,-0.011 0.056,-0.036 0.068,-0.067c0.364,-0.931 0.55,-1.922 0.548,-2.922c-0.002,-0.232 -0.01,-0.481 -0.035,-0.736Z"/>
        </g>
</svg>
